<svg width="1629" height="403" viewBox="0 0 1629 403" fill="none" xmlns="http://www.w3.org/2000/svg">
<path d="M213.806 215.698V249.804H284.929V349.325C263.088 363.862 237.327 372.249 209.886 372.249C127.004 372.249 59.8018 296.21 59.8018 202.28C59.8018 108.349 127.004 32.3102 209.886 32.3102C240.687 32.3102 269.248 42.9332 293.329 60.8248L315.73 47.4061C282.689 18.8915 240.127 1.5591 193.646 1.5591C87.2426 1.5591 1 91.5758 1 202.28C1 312.983 87.2426 403 193.646 403C226.687 403 257.488 394.613 284.369 379.517V399.086H343.17V216.816L213.806 215.698Z" fill="#FFE3DC"/>
<path d="M458.486 363.862V7.15019H399.684V397.968H625.931V363.862H458.486Z" fill="#FFE3DC"/>
<path d="M861.085 1C761.962 1 681.88 91.0167 681.88 201.72C681.88 312.424 761.962 402.441 861.085 402.441C960.209 402.441 1040.29 312.424 1040.29 201.72C1040.29 91.0167 960.209 1 861.085 1ZM861.645 372.808C795.003 372.808 740.682 295.092 740.682 199.484C740.682 103.876 795.003 26.16 861.645 26.16C928.287 26.16 982.609 103.876 982.609 199.484C982.609 295.092 928.287 372.808 861.645 372.808Z" fill="#FFE3DC"/>
<path d="M1593.72 7.15019L1467.16 322.488L1393.79 118.972L1376.99 72.0069L1353.47 7.15019H1287.39L1342.83 157.551L1276.75 322.488L1163.07 7.15019H1096.98L1240.91 398.527H1281.79L1359.63 203.957L1431.31 398.527H1472.2L1629 7.15019H1593.72Z" fill="#FFE3DC"/>
</svg>
